<?xml version="1.0" encoding="UTF-8"?>
<svg version="1.1" xmlns="http://www.w3.org/2000/svg" width="408" height="408">
<path d="M0 0 C0.80761276 -0.00979385 1.61522552 -0.01958771 2.4473114 -0.02967834 C56.57724926 -0.5506916 106.35155463 14.78053445 147.25 51.23828125 C147.76546387 51.69203125 148.28092773 52.14578125 148.81201172 52.61328125 C167.40948431 69.01493575 182.01644675 88.15229614 193.25 110.23828125 C193.64026367 110.99044922 194.03052734 111.74261719 194.43261719 112.51757812 C207.07772537 137.05721924 215.20782893 165.26375224 215.48828125 192.98828125 C215.4980751 193.79589401 215.50786896 194.60350677 215.51795959 195.43559265 C216.03897285 249.56553051 200.7077468 299.33983588 164.25 340.23828125 C163.79625 340.75374512 163.3425 341.26920898 162.875 341.80029297 C146.4733455 360.39776556 127.33598511 375.004728 105.25 386.23828125 C104.49783203 386.62854492 103.74566406 387.01880859 102.97070312 387.42089844 C78.43106201 400.06600662 50.22452901 408.19611018 22.5 408.4765625 C21.69238724 408.48635635 20.88477448 408.49615021 20.0526886 408.50624084 C-34.07724926 409.0272541 -83.85155463 393.69602805 -124.75 357.23828125 C-125.5231958 356.55765625 -125.5231958 356.55765625 -126.31201172 355.86328125 C-144.90948431 339.46162675 -159.51644675 320.32426636 -170.75 298.23828125 C-171.14026367 297.48611328 -171.53052734 296.73394531 -171.93261719 295.95898438 C-184.57772537 271.41934326 -192.70782893 243.21281026 -192.98828125 215.48828125 C-193.00297203 214.27686211 -193.00297203 214.27686211 -193.01795959 213.04096985 C-193.53897285 158.91103199 -178.2077468 109.13672662 -141.75 68.23828125 C-141.29625 67.72281738 -140.8425 67.20735352 -140.375 66.67626953 C-123.9733455 48.07879694 -104.83598511 33.4718345 -82.75 22.23828125 C-81.99783203 21.84801758 -81.24566406 21.45775391 -80.47070312 21.05566406 C-55.93106201 8.41055588 -27.72452901 0.28045232 0 0 Z " fill="#252525" transform="translate(192.75,-0.23828125)"/>
<path d="M0 0 C1.22277901 0.03474426 1.22277901 0.03474426 2.47026062 0.07019043 C14.03957321 0.49795907 25.57849404 1.71018636 37.09593582 2.83296967 C42.91816624 3.3964942 48.74283605 3.93476366 54.56707573 4.47704697 C56.13915164 4.62349093 57.71119953 4.77023593 59.28322029 4.91727066 C78.3270474 6.69752656 97.38525501 8.30256244 116.44467163 9.90563965 C154.15909162 13.07780317 191.86023695 16.37885985 229.55297852 19.79882812 C233.13557112 20.12378954 236.71817363 20.44864162 240.30078125 20.7734375 C241.59059308 20.8904388 241.59059308 20.8904388 242.90646172 21.00980377 C253.70205458 21.98837083 264.49912803 22.94192223 275.30078125 23.8515625 C276.41714966 23.94602661 277.53351807 24.04049072 278.68371582 24.13781738 C283.52875358 24.54704718 288.37411106 24.95043172 293.22070312 25.34082031 C312.88873827 26.96007695 312.88873827 26.96007695 317.76953125 30.90625 C321.7694787 35.99709221 322.05932575 39.46701835 321.62890625 45.87109375 C321.57764587 46.73935287 321.5263855 47.607612 321.47357178 48.50218201 C320.6824319 61.01453085 319.45559992 73.49598847 318.28091812 85.97690582 C317.66478013 92.534745 317.05841276 99.09349562 316.453125 105.65234375 C316.35066247 106.76037605 316.35066247 106.76037605 316.24612999 107.89079285 C315.301674 118.12349786 314.41743879 128.35953034 313.5970726 138.60292625 C313.43135356 140.6706187 313.26423796 142.73819374 313.09671021 144.80574036 C312.67406842 150.02989411 312.25147988 155.25395383 311.85290527 160.48001099 C311.5811806 164.04223026 311.29569965 167.60311872 311.0078125 171.1640625 C310.89555077 172.72369469 310.89555077 172.72369469 310.78102112 174.31483459 C309.63899326 188.03704759 309.63899326 188.03704759 304.04711914 193.00585938 C300.46058841 194.70748015 298.34476415 195.02049122 294.390625 194.9375 C293.71688339 194.9233606 293.04314178 194.90922119 292.34898376 194.89465332 C280.26156409 194.51917617 268.19524439 193.28927849 256.15213013 192.22912598 C253.07886856 191.95975809 250.00515876 191.69570457 246.93144417 191.43156433 C219.15529129 189.04364358 191.39026526 186.52739285 163.62515259 184.01495361 C139.17123822 181.80216685 114.71435161 179.63903689 90.24633789 177.5877533 C87.38643758 177.34791606 84.52659 177.10745324 81.66674042 176.86701202 C75.31239174 176.33283192 68.95796964 175.799527 62.60351562 175.26660156 C61.89622063 175.20727699 61.18892563 175.14795242 60.46019745 175.08683014 C56.66824334 174.76884587 52.87625675 174.4512544 49.08422852 174.13415527 C40.16418697 173.38797286 31.2445477 172.63737236 22.32577896 171.87611198 C18.47696905 171.54776565 14.62799257 171.22184328 10.77844238 170.90228271 C7.21679636 170.60661097 3.65576014 170.30445639 0.09508514 169.99731827 C-1.82519413 169.83337756 -3.74605758 169.67632478 -5.66693115 169.51950073 C-20.95559443 168.18408617 -20.95559443 168.18408617 -25.32940674 163.49813843 C-28.79260041 159.3051019 -28.93523698 155.98496927 -28.62988281 150.70458984 C-28.60504948 149.87462179 -28.58021614 149.04465374 -28.55463028 148.18953514 C-28.46461353 145.63314634 -28.32541488 143.08430656 -28.16796875 140.53125 C-28.12411545 139.77833931 -28.08026215 139.02542862 -28.03507996 138.24970245 C-27.71599696 133.07588093 -27.25808638 127.91871771 -26.77734375 122.7578125 C-26.630483 121.11244664 -26.48438016 119.46701299 -26.338974 117.82151794 C-25.95401465 113.48800545 -25.55903025 109.15546682 -25.1616478 104.82307816 C-24.7516678 100.33624919 -24.35045266 95.84863673 -23.94848633 91.36108398 C-23.46923104 86.0172663 -22.98895475 80.6735482 -22.50398254 75.33024597 C-21.60445877 65.41884166 -20.72593496 55.5062327 -19.8828125 45.58984375 C-19.70290351 43.49071374 -19.52289585 41.39159218 -19.34277344 39.29248047 C-19.10201867 36.48624529 -18.86264296 33.67994689 -18.62902832 30.87310791 C-18.20158356 25.75131396 -17.72790038 20.64036974 -17.16796875 15.53125 C-17.06822754 14.57847168 -16.96848633 13.62569336 -16.86572266 12.64404297 C-16.05293228 7.38423661 -14.13735413 4.990867 -10.17982483 1.77284241 C-6.89723046 -0.25297062 -3.71847391 -0.20557623 0 0 Z " fill="#000000" transform="translate(57.16796875,106.46875)"/>
<path d="M0 0 C0.99 0.33 1.98 0.66 3 1 C2.59007812 1.53109375 2.18015625 2.0621875 1.7578125 2.609375 C1.21898437 3.31578125 0.68015625 4.0221875 0.125 4.75 C-0.40867187 5.44609375 -0.94234375 6.1421875 -1.4921875 6.859375 C-3.23406233 9.21904196 -3.23406233 9.21904196 -5 13 C-1.7 13 1.6 13 5 13 C4.67 13.66 4.34 14.32 4 15 C2.31147966 14.91394185 0.62406709 14.80581488 -1.0625 14.6875 C-4.11529031 14.75401921 -4.11529031 14.75401921 -7 16 C-13.02152515 23.44005752 -16.20922959 32.49098586 -17 42 C-9.92336516 40.01357619 -6.19292974 37.03478519 -2 31 C-1.32019065 29.68366504 -0.67234211 28.35017446 -0.0625 27 C2.67694749 20.99930549 7.82723761 15.49849906 14 13 C17.78479457 12.5944863 20.09304713 12.48838556 23.4375 14.375 C25.89884728 18.51006343 25.67934482 22.31535132 25 27 C22.71631823 34.85015607 16.54924059 40.60969511 9.9375 45.0625 C6.13597122 46.27575386 3.81518211 46.15175309 0 45 C-2.07521469 42.37139473 -2.94343537 40.16969389 -4 37 C-4.72316406 37.74056641 -4.72316406 37.74056641 -5.4609375 38.49609375 C-6.09257812 39.13675781 -6.72421875 39.77742188 -7.375 40.4375 C-8.00148438 41.07558594 -8.62796875 41.71367187 -9.2734375 42.37109375 C-11.86351827 44.81467674 -12.83177751 44.99098808 -16.5 45.1875 C-20 45 -20 45 -22 43 C-22.39764263 41.01178687 -22.73775349 39.01055661 -23 37 C-23.72316406 37.74056641 -23.72316406 37.74056641 -24.4609375 38.49609375 C-25.40839844 39.45708984 -25.40839844 39.45708984 -26.375 40.4375 C-27.00148438 41.07558594 -27.62796875 41.71367187 -28.2734375 42.37109375 C-30.66181544 44.62438244 -31.6714083 44.97946302 -35 45.1875 C-38 45 -38 45 -40 43 C-40 33.48668191 -33.38260881 25.38186351 -28 18 C-27.505 16.515 -27.505 16.515 -27 15 C-28.64936048 16.28715972 -30.29439047 17.57987019 -31.9375 18.875 C-32.85402344 19.59429687 -33.77054687 20.31359375 -34.71484375 21.0546875 C-37.06009485 22.79420836 -37.06009485 22.79420836 -38 25 C-38.66 25 -39.32 25 -40 25 C-40.2371875 25.52464844 -40.474375 26.04929688 -40.71875 26.58984375 C-42.40086963 29.75407489 -44.44047364 32.63770938 -46.5 35.5625 C-49.78516985 40.25703889 -49.78516985 40.25703889 -53 45 C-55.625 45.1875 -55.625 45.1875 -58 45 C-57.67 44.030625 -57.34 43.06125 -57 42.0625 C-55.94826637 39.37850426 -55.94826637 39.37850426 -56 38 C-56.45890625 38.40992188 -56.9178125 38.81984375 -57.390625 39.2421875 C-58.00421875 39.78101563 -58.6178125 40.31984375 -59.25 40.875 C-59.85328125 41.40867188 -60.4565625 41.94234375 -61.078125 42.4921875 C-64.68959244 45.32557456 -67.46095906 46.30559516 -72.0625 46.375 C-73.34833984 46.41753906 -73.34833984 46.41753906 -74.66015625 46.4609375 C-77 46 -77 46 -78.765625 44.1796875 C-80.29302472 41.48257028 -80.65232533 39.0595371 -81 36 C-81.38671875 36.48210937 -81.7734375 36.96421875 -82.171875 37.4609375 C-82.69265625 38.09257812 -83.2134375 38.72421875 -83.75 39.375 C-84.26046875 40.00148437 -84.7709375 40.62796875 -85.296875 41.2734375 C-88.13571511 44.15134421 -90.21649085 44.96986503 -94.25 45.125 C-95.1575 45.08375 -96.065 45.0425 -97 45 C-98.66121139 39.77904993 -97.82696067 37.01641133 -95.375 32.125 C-94.26890128 30.07303182 -93.14409367 28.03102867 -92 26 C-91.49984375 25.08476562 -90.9996875 24.16953125 -90.484375 23.2265625 C-89.33959649 21.14096028 -88.17922683 19.06625586 -87 17 C-94.9210902 23.58376329 -101.31877875 30.39976087 -106.54296875 39.3125 C-107.02378906 39.869375 -107.50460938 40.42625 -108 41 C-109.32 41 -110.64 41 -112 41 C-112.56850758 35.26078062 -110.69053429 31.65566401 -108.0625 26.75 C-107.68931641 26.03070313 -107.31613281 25.31140625 -106.93164062 24.5703125 C-105.96411325 22.70847604 -104.98297434 20.85372751 -104 19 C-103.67 18.34 -103.34 17.68 -103 17 C-112.09807667 24.52527086 -119.00954447 32.51714762 -125.04296875 42.69140625 C-127 45 -127 45 -129.73828125 45.33984375 C-130.48464844 45.22769531 -131.23101562 45.11554688 -132 45 C-131.34 43.02 -130.68 41.04 -130 39 C-130.54269531 39.42152344 -131.08539063 39.84304687 -131.64453125 40.27734375 C-132.35996094 40.82519531 -133.07539063 41.37304688 -133.8125 41.9375 C-134.52019531 42.48277344 -135.22789062 43.02804688 -135.95703125 43.58984375 C-139.08937912 45.75194237 -141.78358822 46.17567176 -145.5 46.25 C-146.2734375 46.27578125 -147.046875 46.3015625 -147.84375 46.328125 C-150 46 -150 46 -151.74609375 44.80078125 C-154.39118766 41.00206382 -153.70100792 36.38417249 -153 32 C-150.08082241 24.84697974 -144.74848205 17.78938337 -138.01171875 13.83203125 C-134.9160742 12.55169671 -132.30151563 12.69986222 -129 13 C-127 14.125 -127 14.125 -126 16 C-126 20.4142654 -127.38829415 23.28261615 -130.34765625 26.55078125 C-135.08933217 30.70955612 -140.97494538 33.30062562 -147 35 C-147.33 37.97 -147.66 40.94 -148 44 C-138.77989827 42.5593591 -133.14919042 38.99382786 -127.22705078 31.74365234 C-124.59139228 27.99835329 -122.90907971 23.68288306 -121.12695312 19.48242188 C-120.20443444 17.48269956 -119.35919952 15.73419041 -118 14 C-114.74609375 13.01953125 -114.74609375 13.01953125 -112 13 C-112.71971619 16.75345656 -114.33112202 19.86091969 -116.0625 23.25 C-116.61035156 24.32765625 -117.15820312 25.4053125 -117.72265625 26.515625 C-118.14417969 27.33546875 -118.56570312 28.1553125 -119 29 C-118.24074219 28.15695313 -117.48148438 27.31390625 -116.69921875 26.4453125 C-115.69548204 25.33838791 -114.69156642 24.23162553 -113.6875 23.125 C-113.18798828 22.56941406 -112.68847656 22.01382813 -112.17382812 21.44140625 C-109.8912844 18.93211977 -107.83639832 16.89093222 -105 15 C-101.8125 14.875 -101.8125 14.875 -99 15 C-97.99178841 17.68856424 -97.77263176 19.41703215 -98.82421875 22.11328125 C-99.83395302 24.10794931 -100.88106647 26.0646772 -102 28 C-101.39671875 27.31292969 -100.7934375 26.62585938 -100.171875 25.91796875 C-98.97304687 24.56638672 -98.97304687 24.56638672 -97.75 23.1875 C-96.96109375 22.29417969 -96.1721875 21.40085938 -95.359375 20.48046875 C-90.2130223 15.06998206 -90.2130223 15.06998206 -85.75 14.8125 C-84.8425 14.874375 -83.935 14.93625 -83 15 C-82.0774372 17.46016747 -81.75317286 19.27681221 -82.61328125 21.796875 C-84.87252345 26.44552151 -87.70896624 30.64001147 -90.73046875 34.82421875 C-92.13127952 37.2249929 -92.60241316 39.26479412 -93 42 C-85.14499849 39.05437443 -80.35448965 32.28538574 -76 25.375 C-72.76349902 20.30685287 -68.43790013 15.71895007 -63 13 C-56.52941176 12.64705882 -56.52941176 12.64705882 -53 15 C-52.35155392 18.09813126 -52.43352619 20.06993838 -54.1015625 22.80859375 C-58.62065948 28.42725711 -64.15644663 31.71881554 -71 34 C-71.99 34 -72.98 34 -74 34 C-74 36.97 -74 39.94 -74 43 C-68.50858728 43.84483273 -65.52004202 41.85548422 -61.23828125 38.75390625 C-54.50238817 33.47569335 -51.15721356 29.04019798 -48.23828125 20.8671875 C-46.88025623 17.7227384 -45.34549305 15.4901092 -43 13 C-40.25 12.6875 -40.25 12.6875 -38 13 C-39.49170266 17.9723422 -41.60457417 22.41845739 -44 27 C-43.50371094 26.40832031 -43.00742188 25.81664062 -42.49609375 25.20703125 C-32.38073175 13.44096501 -32.38073175 13.44096501 -26.125 12.625 C-24 13 -24 13 -23 14 C-21.96921537 20.29479157 -25.26852278 24.55509204 -28.4375 29.6875 C-29.45920844 31.37759199 -30.47883402 33.06894537 -31.49609375 34.76171875 C-31.95169678 35.50381592 -32.4072998 36.24591309 -32.87670898 37.01049805 C-34.13871056 39.09770203 -34.13871056 39.09770203 -35 42 C-23.87676082 37.51167542 -19.73924518 29.17848835 -15.06640625 18.52734375 C-14.71449219 17.69332031 -14.36257813 16.85929687 -14 16 C-14.99 15.67 -15.98 15.34 -17 15 C-17 14.34 -17 13.68 -17 13 C-16.0925 12.79375 -15.185 12.5875 -14.25 12.375 C-10.18121872 10.65359254 -9.29409257 8.70014931 -7 5 C-4.72772946 2.99823785 -2.70333897 1.35166948 0 0 Z " fill="#EBEBEB" transform="translate(295,176)"/>
<path d="M0 0 C2 1.125 2 1.125 3 3 C3 7.4142654 1.61170585 10.28261615 -1.34765625 13.55078125 C-6.08933217 17.70955612 -11.97494538 20.30062562 -18 22 C-18.33 24.97 -18.66 27.94 -19 31 C-9.77989827 29.5593591 -4.14919042 25.99382786 1.77294922 18.74365234 C4.40860772 14.99835329 6.09092029 10.68288306 7.87304688 6.48242188 C8.79556556 4.48269956 9.64080048 2.73419041 11 1 C14.25390625 0.01953125 14.25390625 0.01953125 17 0 C16.28028381 3.75345656 14.66887798 6.86091969 12.9375 10.25 C12.38964844 11.32765625 11.84179688 12.4053125 11.27734375 13.515625 C10.85582031 14.33546875 10.43429688 15.1553125 10 16 C10.75925781 15.15695313 11.51851562 14.31390625 12.30078125 13.4453125 C13.30451796 12.33838791 14.30843358 11.23162553 15.3125 10.125 C15.81201172 9.56941406 16.31152344 9.01382813 16.82617188 8.44140625 C19.1087156 5.93211977 21.16360168 3.89093222 24 2 C27.1875 1.875 27.1875 1.875 30 2 C31.00821159 4.68856424 31.22736824 6.41703215 30.17578125 9.11328125 C29.16604698 11.10794931 28.11893353 13.0646772 27 15 C27.60328125 14.31292969 28.2065625 13.62585938 28.828125 12.91796875 C30.02695313 11.56638672 30.02695313 11.56638672 31.25 10.1875 C32.03890625 9.29417969 32.8278125 8.40085938 33.640625 7.48046875 C38.7869777 2.06998206 38.7869777 2.06998206 43.25 1.8125 C44.61125 1.9053125 44.61125 1.9053125 46 2 C46.9225628 4.46016747 47.24682714 6.27681221 46.38671875 8.796875 C44.12747655 13.44552151 41.29103376 17.64001147 38.26953125 21.82421875 C36.86872048 24.2249929 36.39758684 26.26479412 36 29 C39.56927631 27.33433772 42.28953038 25.8459931 45 23 C45.66 23 46.32 23 47 23 C45.27592413 27.38855677 42.17026127 29.91486937 38 32 C36.00039988 32.039992 33.99952758 32.04346799 32 32 C30.33878861 26.77904993 31.17303933 24.01641133 33.625 19.125 C34.73109872 17.07303182 35.85590633 15.03102867 37 13 C37.50015625 12.08476562 38.0003125 11.16953125 38.515625 10.2265625 C39.66040351 8.14096028 40.82077317 6.06625586 42 4 C34.0789098 10.58376329 27.68122125 17.39976087 22.45703125 26.3125 C21.97621094 26.869375 21.49539062 27.42625 21 28 C19.68 28 18.36 28 17 28 C16.43149242 22.26078062 18.30946571 18.65566401 20.9375 13.75 C21.49727539 12.67105469 21.49727539 12.67105469 22.06835938 11.5703125 C23.03588675 9.70847604 24.01702566 7.85372751 25 6 C25.33 5.34 25.66 4.68 26 4 C16.90192333 11.52527086 9.99045553 19.51714762 3.95703125 29.69140625 C2 32 2 32 -0.73828125 32.33984375 C-1.48464844 32.22769531 -2.23101562 32.11554688 -3 32 C-2.34 30.02 -1.68 28.04 -1 26 C-1.54269531 26.42152344 -2.08539063 26.84304687 -2.64453125 27.27734375 C-3.35996094 27.82519531 -4.07539063 28.37304688 -4.8125 28.9375 C-5.52019531 29.48277344 -6.22789062 30.02804688 -6.95703125 30.58984375 C-10.08937912 32.75194237 -12.78358822 33.17567176 -16.5 33.25 C-17.2734375 33.27578125 -18.046875 33.3015625 -18.84375 33.328125 C-21 33 -21 33 -22.74609375 31.80078125 C-25.39118766 28.00206382 -24.70100792 23.38417249 -24 19 C-21.08082241 11.84697974 -15.74848205 4.78938337 -9.01171875 0.83203125 C-5.9160742 -0.44830329 -3.30151563 -0.30013778 0 0 Z " fill="#EEEEEE" transform="translate(166,189)"/>
<path d="M0 0 C4.75 0.75 4.75 0.75 7 3 C7.39788624 8.82303351 6.55656269 13.77097247 5.0625 19.375 C3.42569225 25.57520462 2.49651482 31.60250182 2 38 C2.32049316 37.55422607 2.64098633 37.10845215 2.97119141 36.64916992 C5.70504079 32.84914829 8.44614856 29.05458416 11.1953125 25.265625 C13.75783944 21.73137936 16.28979496 18.17764603 18.8046875 14.609375 C20.03613607 12.88518645 21.26789796 11.16122164 22.5 9.4375 C23.36165771 8.19746216 23.36165771 8.19746216 24.24072266 6.93237305 C24.79034668 6.16965088 25.3399707 5.40692871 25.90625 4.62109375 C26.38384766 3.9448999 26.86144531 3.26870605 27.35351562 2.57202148 C29.50232591 0.52039197 31.06252923 0.17961041 34 0 C34.66 0.66 35.32 1.32 36 2 C35.6360177 5.63108438 34.42884895 8.46357646 32.7421875 11.66796875 C32.28440918 12.55299072 31.82663086 13.4380127 31.35498047 14.34985352 C30.86658691 15.28627686 30.37819336 16.2227002 29.875 17.1875 C26.20682675 24.36319221 22.77380616 31.53993269 19.875 39.0625 C19.59253418 39.79299561 19.31006836 40.52349121 19.01904297 41.27612305 C17.69065043 44.81836401 16.59770499 48.26069924 16 52 C14.68 51.34 13.36 50.68 12 50 C9.85961323 37.63332087 18.48220935 25.9732323 24.87109375 16.015625 C26.00472508 13.99156353 26.4852448 12.24631094 27 10 C20.4602196 18.40086258 13.97701703 26.83606083 7.875 35.5625 C7.42664795 36.1915625 6.9782959 36.820625 6.51635742 37.46875 C3.53082777 41.79802542 1.68518488 46.01603818 0 51 C-1.485 50.505 -1.485 50.505 -3 50 C-5.83149956 41.50550133 -3.32476037 32.35766984 -1.5 23.875 C-1.14228516 22.15410156 -1.14228516 22.15410156 -0.77734375 20.3984375 C-0.19370683 17.59698029 0.39888365 14.79774897 1 12 C0.52691406 12.90878906 0.05382812 13.81757813 -0.43359375 14.75390625 C-3.9977179 21.54462552 -7.67363124 28.21370845 -11.6875 34.75 C-15.29447941 40.63458635 -18.35702401 46.61170124 -21 53 C-21.99 52.34 -22.98 51.68 -24 51 C-25.22035116 43.42365322 -22.11896651 39.03201444 -18 32.875 C-16.80303358 31.01538645 -15.607722 29.15470669 -14.4140625 27.29296875 C-13.53669434 25.94017822 -13.53669434 25.94017822 -12.64160156 24.56005859 C-7.64537672 16.76850391 -2.83345678 8.85455244 0 0 Z " fill="#F2F2F2" transform="translate(112,169)"/>
<path d="M0 0 C2.4375 1.375 2.4375 1.375 4 4 C4.99392124 9.79958165 4.32143818 14.94071268 1.3984375 20.05078125 C-2.52536701 25.51999479 -7.46643229 30.91481881 -14 33 C-17.6875 33 -17.6875 33 -21 32 C-23.07521469 29.37139473 -23.94343537 27.16969389 -25 24 C-27.31 25.98 -29.62 27.96 -32 30 C-32.66 29.34 -33.32 28.68 -34 28 C-33.13375 27.505 -32.2675 27.01 -31.375 26.5 C-26.2122767 23.05412572 -22.92639827 17.84843971 -20.0625 12.4375 C-15.69662937 4.47298287 -9.34592133 -1.00134871 0 0 Z " fill="#EDEDED" transform="translate(316,189)"/>
<path d="M0 0 C2 1.125 2 1.125 3 3 C3 7.4142654 1.61170585 10.28261615 -1.34765625 13.55078125 C-6.08933217 17.70955612 -11.97494538 20.30062562 -18 22 C-18.33 24.97 -18.66 27.94 -19 31 C-13.13393529 30.00728136 -9.19696195 28.94166957 -4.60546875 25.12109375 C-2.76922903 23.83885336 -1.18403749 23.42164715 1 23 C1 23.66 1 24.32 1 25 C-1.08203125 26.69140625 -1.08203125 26.69140625 -3.8125 28.5625 C-5.15248047 29.49255859 -5.15248047 29.49255859 -6.51953125 30.44140625 C-9.89826946 32.56442443 -12.57855836 33.17157117 -16.5 33.25 C-17.2734375 33.27578125 -18.046875 33.3015625 -18.84375 33.328125 C-21 33 -21 33 -22.74609375 31.80078125 C-25.39118766 28.00206382 -24.70100792 23.38417249 -24 19 C-21.08082241 11.84697974 -15.74848205 4.78938337 -9.01171875 0.83203125 C-5.9160742 -0.44830329 -3.30151563 -0.30013778 0 0 Z " fill="#F4F4F4" transform="translate(166,189)"/>
<path d="M0 0 C3 2 3 2 3.5625 4.6875 C2.76407663 9.38932654 0.48947173 11.85488404 -3 15 C-7.45381043 18.15478239 -12.47585713 21 -18 21 C-18 23.97 -18 26.94 -18 30 C-15.525 30.99 -15.525 30.99 -13 32 C-13 32.33 -13 32.66 -13 33 C-20.41988304 33.48654971 -20.41988304 33.48654971 -22.9375 31.375 C-24.17608873 28.60638989 -24.53558305 25.98553755 -25 23 C-25.66 22.67 -26.32 22.34 -27 22 C-11.30519434 -1.27983332 -11.30519434 -1.27983332 0 0 Z " fill="#F3F3F3" transform="translate(239,189)"/>
<path d="M0 0 C2.125 0.5 2.125 0.5 3.125 1.5 C3.98066721 10.48450569 1.07861381 16.95924604 -4.4375 24 C-8.01560742 27.66985377 -8.01560742 27.66985377 -10.875 28.5 C-14.375 28 -14.375 28 -15.875 26.5 C-17.00321594 19.24718324 -13.60874371 13.55914549 -9.875 7.5 C-7.03704488 3.79074287 -4.71762482 0.82045649 0 0 Z " fill="#050505" transform="translate(313.875,191.5)"/>
<path d="M0 0 C0.9225628 2.46016747 1.24682714 4.27681221 0.38671875 6.796875 C-1.87252345 11.44552151 -4.70896624 15.64001147 -7.73046875 19.82421875 C-9.13127952 22.2249929 -9.60241316 24.26479412 -10 27 C-6.43072369 25.33433772 -3.71046962 23.8459931 -1 21 C-0.34 21 0.32 21 1 21 C-0.72407587 25.38855677 -3.82973873 27.91486937 -8 30 C-9.99960012 30.039992 -12.00047242 30.04346799 -14 30 C-15.66121139 24.77904993 -14.82696067 22.01641133 -12.375 17.125 C-11.26890128 15.07303182 -10.14409367 13.03102867 -9 11 C-8.49984375 10.08476562 -7.9996875 9.16953125 -7.484375 8.2265625 C-6.33959649 6.14096028 -5.17922683 4.06625586 -4 2 C-4.54269531 2.51691406 -5.08539063 3.03382813 -5.64453125 3.56640625 C-6.35996094 4.22511719 -7.07539063 4.88382813 -7.8125 5.5625 C-8.87404297 6.55443359 -8.87404297 6.55443359 -9.95703125 7.56640625 C-10.63121094 8.03949219 -11.30539063 8.51257813 -12 9 C-12.99 8.67 -13.98 8.34 -15 8 C-13.64266013 6.64869276 -12.26325362 5.3195282 -10.875 4 C-10.10929688 3.2575 -9.34359375 2.515 -8.5546875 1.75 C-5.46536373 -0.36623402 -3.66835926 -0.34025361 0 0 Z " fill="#EEEEEE" transform="translate(212,191)"/>
<path d="M0 0 C-0.88951893 5.12413017 -3.94577143 9.36660109 -6.50390625 13.80859375 C-8.02580668 17.05504977 -8.02234285 18.53685861 -8 22 C-9.35546875 24.67578125 -9.35546875 24.67578125 -11.1875 27.3125 C-11.77917969 28.19550781 -12.37085938 29.07851562 -12.98046875 29.98828125 C-15 32 -15 32 -17.73828125 32.29296875 C-18.85783203 32.14794922 -18.85783203 32.14794922 -20 32 C-19.01 29.36 -18.02 26.72 -17 24 C-17.66 23.67 -18.32 23.34 -19 23 C-18.26136719 22.18144531 -17.52273437 21.36289063 -16.76171875 20.51953125 C-13.7339956 16.88775759 -11.80277045 12.95125677 -9.8125 8.6875 C-5.7265279 0 -5.7265279 0 0 0 Z " fill="#F4F4F4" transform="translate(183,189)"/>
<path d="M0 0 C1.66611905 -0.042721 3.33382885 -0.04063832 5 0 C6 1 6 1 6.40625 3.46875 C5.71705875 9.45941244 2.08535939 13.99536587 -1.08984375 19.01171875 C-4.80213653 25.02084136 -4.80213653 25.02084136 -5 32 C-9.875 31.125 -9.875 31.125 -11 30 C-10.79141517 20.40509801 -4.45259201 12.47784047 1 5 C1.33 4.01 1.66 3.02 2 2 C1.34 2 0.68 2 0 2 C0 1.34 0 0.68 0 0 Z " fill="#F1F1F1" transform="translate(266,189)"/>
<path d="M0 0 C-0.5103807 4.46583113 -2.01096038 6.68782096 -5 10 C-7.796875 12.01953125 -7.796875 12.01953125 -10.75 13.8125 C-11.73484375 14.41707031 -12.7196875 15.02164063 -13.734375 15.64453125 C-14.48203125 16.09183594 -15.2296875 16.53914063 -16 17 C-16.33 16.34 -16.66 15.68 -17 15 C-7.41747573 0 -7.41747573 0 0 0 Z " fill="#0F0F0F" transform="translate(239,192)"/>
<path d="M0 0 C-0.7635939 6.18403507 -4.34303528 9.17378028 -9 13 C-11.62553537 14.59486835 -14.16582246 15.78535248 -17 17 C-15.69845203 10.65495364 -11.59261874 6.33265919 -7 2 C-4.30147548 0.35033596 -3.22605095 0 0 0 Z " fill="#0C0C0C" transform="translate(166,192)"/>
<path d="M0 0 C0.33 0.99 0.66 1.98 1 3 C0.04711914 4.7265625 0.04711914 4.7265625 -1.46484375 6.625 C-2.28879639 7.67796265 -2.28879639 7.67796265 -3.12939453 8.75219727 C-3.72606934 9.49397217 -4.32274414 10.23574707 -4.9375 11 C-6.14324187 12.52891195 -7.34766911 14.05886158 -8.55078125 15.58984375 C-9.14197754 16.33862793 -9.73317383 17.08741211 -10.34228516 17.85888672 C-13.18499238 21.53054244 -15.80187852 25.35297869 -18.4140625 29.19140625 C-18.93742187 29.78824219 -19.46078125 30.38507813 -20 31 C-20.99 31 -21.98 31 -23 31 C-21.28440321 27.1750629 -18.88404048 23.8797713 -16.4375 20.5 C-15.99857422 19.89067627 -15.55964844 19.28135254 -15.10742188 18.65356445 C-13.74314705 16.76545312 -12.37281041 14.88191267 -11 13 C-10.56574707 12.40364746 -10.13149414 11.80729492 -9.68408203 11.19287109 C-8.46188456 9.52002051 -7.23274632 7.85258752 -6 6.1875 C-5.278125 5.21167969 -4.55625 4.23585937 -3.8125 3.23046875 C-2 1 -2 1 0 0 Z " fill="#DEDEDE" transform="translate(138,176)"/>
<path d="M0 0 C0.99 0.33 1.98 0.66 3 1 C3.43879669 3.99844405 3.49894994 6.16841676 1.91015625 8.81640625 C-2.97103179 14.81107485 -8.57610767 17.82715346 -16 20 C-16 19.34 -16 18.68 -16 18 C-13.3401132 16.17935335 -10.57422223 14.58403293 -7.796875 12.94921875 C-3.72119793 10.10876783 -1.35503211 7.56805848 -0.25 2.6875 C-0.1675 1.800625 -0.085 0.91375 0 0 Z " fill="#DDDDDD" transform="translate(239,190)"/>
<path d="M0 0 C0.99 0 1.98 0 3 0 C2.62572321 5.23987507 0.91394742 8.57414485 -3 12 C-7.11472648 14.72848173 -11.14273892 16.97567964 -16 18 C-16 17.34 -16 16.68 -16 16 C-14.2421875 14.703125 -14.2421875 14.703125 -11.875 13.25 C-4.68731665 8.76135048 -4.68731665 8.76135048 -0.34375 1.8203125 C-0.2303125 1.21960938 -0.116875 0.61890625 0 0 Z " fill="#DEDEDE" transform="translate(166,192)"/>
<path d="M0 0 C0.75 1.5625 0.75 1.5625 1 4 C-1.94417159 10.50171225 -6.43760529 16.25670046 -12.9375 19.4375 C-13.618125 19.623125 -14.29875 19.80875 -15 20 C-15 19.34 -15 18.68 -15 18 C-14.13375 17.505 -13.2675 17.01 -12.375 16.5 C-7.04671486 13.17140382 -3.93908017 6.81724051 -2 1 C-1.34 0.67 -0.68 0.34 0 0 Z " fill="#E2E2E2" transform="translate(318,201)"/>
<path d="M0 0 C-1.1170919 3.01614813 -2.6125776 4.64508669 -5.0625 6.625 C-8.00824713 8.67119397 -8.00824713 8.67119397 -9 11 C-9.66 11 -10.32 11 -11 11 C-11.2475 11.5775 -11.495 12.155 -11.75 12.75 C-13.18299988 15.32939979 -14.78424676 17.06121592 -17 19 C-17.66 19 -18.32 19 -19 19 C-17.74325117 15.22975351 -15.8413389 13.77819804 -13 11 C-11.99032223 9.82071757 -10.99058891 8.63286181 -10 7.4375 C-3.69923581 0 -3.69923581 0 0 0 Z " fill="#D3D3D3" transform="translate(266,190)"/>
<path d="M0 0 C0 0.66 0 1.32 0 2 C-1.46875 3.41015625 -1.46875 3.41015625 -3.5 5.0625 C-8.13683787 8.98725205 -12.06502987 13.38478237 -16 18 C-16.66 17.67 -17.32 17.34 -18 17 C-18 15 -18 15 -16 12.875 C-15.54882812 12.44316406 -15.09765625 12.01132813 -14.6328125 11.56640625 C-11.98538479 9.02664904 -9.43859429 6.38596267 -6.8671875 3.76953125 C-2.88962472 0 -2.88962472 0 0 0 Z " fill="#DBDBDB" transform="translate(192,191)"/>
<path d="M0 0 C0.33 1.32 0.66 2.64 1 4 C0.34 4 -0.32 4 -1 4 C-2.3679353 5.46490111 -2.3679353 5.46490111 -3.75 7.3125 C-6.51278796 10.61845744 -8.82333983 12.60777994 -13 14 C-16.375 13.6875 -16.375 13.6875 -19 13 C-19 12.67 -19 12.34 -19 12 C-17.72125 11.690625 -16.4425 11.38125 -15.125 11.0625 C-8.81801926 9.01699273 -4.61322672 4.59396481 0 0 Z " fill="#D5D5D5" transform="translate(241,208)"/>
<path d="M0 0 C0.66 0.33 1.32 0.66 2 1 C0.57391198 3.00907998 -0.86466032 5.00669514 -2.3125 7 C-2.71662109 7.57234375 -3.12074219 8.1446875 -3.53710938 8.734375 C-4.61900525 10.21208644 -5.80455549 11.61254109 -7 13 C-7.99 13 -8.98 13 -10 13 C-7.73457912 7.85131619 -4.68917123 3.12611416 0 0 Z " fill="#E8E8E8" transform="translate(125,194)"/>
<path d="M0 0 C0.33 0.66 0.66 1.32 1 2 C-0.57789598 3.15330947 -2.1625482 4.29737927 -3.75 5.4375 C-4.63171875 6.07558594 -5.5134375 6.71367187 -6.421875 7.37109375 C-9.83126222 9.52520658 -11.77564905 10.19478311 -15.75 9.5625 C-16.4925 9.376875 -17.235 9.19125 -18 9 C-18 8.67 -18 8.34 -18 8 C-16.824375 7.773125 -15.64875 7.54625 -14.4375 7.3125 C-10.4398111 6.33434208 -7.73308969 4.674706 -4.54296875 2.12109375 C-3 1 -3 1 0 0 Z " fill="#CBCBCB" transform="translate(166,212)"/>
<path d="M0 0 C-0.25 1.875 -0.25 1.875 -1 4 C-2.33333333 4.66666667 -3.66666667 5.33333333 -5 6 C-6.9499629 7.70995544 -6.9499629 7.70995544 -8.75 9.625 C-9.36359375 10.25664062 -9.9771875 10.88828125 -10.609375 11.5390625 C-11.06828125 12.02117187 -11.5271875 12.50328125 -12 13 C-12 10 -12 10 -9.8828125 7.51953125 C-8.97273437 6.62621094 -8.06265625 5.73289063 -7.125 4.8125 C-6.22007812 3.91144531 -5.31515625 3.01039063 -4.3828125 2.08203125 C-2 0 -2 0 0 0 Z " fill="#191919" transform="translate(208,193)"/>
<path d="M0 0 C0.99 0.33 1.98 0.66 3 1 C2 3 2 3 0.1875 3.875 C-2.38820998 5.19965085 -4.03454804 6.89415861 -6 9 C-6.99 8.67 -7.98 8.34 -9 8 C-6.03 5.36 -3.06 2.72 0 0 Z " fill="#D8D8D8" transform="translate(206,191)"/>
<path d="M0 0 C0.33 0.99 0.66 1.98 1 3 C-0.62339805 4.70884005 -2.29319053 6.37446717 -4 8 C-4.66 8 -5.32 8 -6 8 C-4.55746343 4.63408134 -2.66735273 2.48952921 0 0 Z " fill="#E5E5E5" transform="translate(138,176)"/>
<path d="M0 0 C1.41687119 4.25061356 0.19320039 6.71851625 -1 11 C-1.99 10.67 -2.98 10.34 -4 10 C-2.8905928 6.51329166 -1.73662334 3.22515763 0 0 Z " fill="#3C3C3C" transform="translate(113,179)"/>
<path d="M0 0 C0.33 0.99 0.66 1.98 1 3 C-1.97 5.475 -1.97 5.475 -5 8 C-5.66 7.67 -6.32 7.34 -7 7 C-4.69 4.69 -2.38 2.38 0 0 Z " fill="#E8E8E8" transform="translate(239,197)"/>
<path d="M0 0 C-4.75 4 -4.75 4 -7 4 C-7.33 3.01 -7.66 2.02 -8 1 C-3.375 -1.125 -3.375 -1.125 0 0 Z " fill="#DBDBDB" transform="translate(268,217)"/>
<path d="M0 0 C0.99 0.33 1.98 0.66 3 1 C-0.61328125 5.6875 -0.61328125 5.6875 -2 7 C-2.99 7 -3.98 7 -5 7 C-3.88820837 3.66462511 -2.52588702 2.36292656 0 0 Z " fill="#CACACA" transform="translate(252,202)"/>
<path d="M0 0 C0.66 0 1.32 0 2 0 C2 2.97 2 5.94 2 9 C1.01 8.67 0.02 8.34 -1 8 C-0.67 5.36 -0.34 2.72 0 0 Z " fill="#F3F3F3" transform="translate(318,194)"/>
<path d="M0 0 C1.32 0.33 2.64 0.66 4 1 C4.33 1.99 4.66 2.98 5 4 C4.34 4 3.68 4 3 4 C3 5.65 3 7.3 3 9 C2.67 9 2.34 9 2 9 C1.34 6.03 0.68 3.06 0 0 Z " fill="#C9C9C9" transform="translate(315,190)"/>
<path d="M0 0 C-1.39332574 3.36720387 -2.9789286 4.9859524 -6 7 C-5.37162381 3.35541809 -4.14650034 0 0 0 Z " fill="#CBCBCB" transform="translate(213,212)"/>
<path d="M0 0 C0 0.99 0 1.98 0 3 C-2.31 3.66 -4.62 4.32 -7 5 C-7 4.34 -7 3.68 -7 3 C-2.61538462 0 -2.61538462 0 0 0 Z " fill="#D4D4D4" transform="translate(157,205)"/>
</svg>
